<svg xmlns="http://www.w3.org/2000/svg" viewBox="0 0 1080.24 1010.13"><title>Recurso 2</title><g id="Capa_2" data-name="Capa 2"><g id="Capa_1-2" data-name="Capa 1"><path d="M950.78,0C885.56,0,831.45,48.47,822.57,111.3l-363,210.5a157.44,157.44,0,0,0-91-28.86H158.33C71,292.94,0,364,0,451.24v91.38C0,629.9,71,700.91,158.33,700.91h38.26a80.58,80.58,0,0,0-3.8,24.48V929.46a80.74,80.74,0,0,0,80.67,80.67h60.09a80.75,80.75,0,0,0,80.68-80.67V725.39a80.18,80.18,0,0,0-5.65-29.59,157.92,157.92,0,0,0,62.17-32.36v3.64L823.87,889c12,59,64.38,103.59,126.91,103.59,71.39,0,129.46-58.09,129.46-129.51V129.51C1080.24,58.09,1022.17,0,950.78,0ZM358,929.46a24.5,24.5,0,0,1-24.48,24.47H273.46A24.49,24.49,0,0,1,249,929.46V725.39a24.5,24.5,0,0,1,24.47-24.48h60.09A24.51,24.51,0,0,1,358,725.39Zm10.59-284.74H158.33A102.23,102.23,0,0,1,56.2,542.62V451.24a102.23,102.23,0,0,1,102.13-102.1H368.62a102,102,0,0,1,83.5,43.42l18.63,128.79v21.27A102.23,102.23,0,0,1,368.62,644.72Zm158.11-93.89c.14-2.72.22-5.46.22-8.21V451.24a157.25,157.25,0,0,0-21-78.59l-1.69-11.79L821.26,177V821L526.89,636ZM1024,863.11a73.29,73.29,0,1,1-146.58,0V129.51a73.29,73.29,0,1,1,146.58,0Z"/></g></g></svg>