<svg xmlns="http://www.w3.org/2000/svg" width="49.193" height="39.48" viewBox="0 0 49.193 39.48"><defs><style>.a{fill:#4d4d4d;}</style></defs><path class="a" d="M3217.4,2246h-34.076a.76.76,0,0,0-.781.792v2.515h-2.6a.848.848,0,0,0-.811.866v2.544h-2.57a.847.847,0,0,0-.841.836v2.574h-2.54a.849.849,0,0,0-.871.806v2.6h-2.51a.761.761,0,0,0-.8.777v24.37a.773.773,0,0,0,.8.793h34.076a.761.761,0,0,0,.781-.793v-2.514h2.6a.849.849,0,0,0,.811-.866v-2.544h2.57a.848.848,0,0,0,.841-.837v-2.573h2.54a.849.849,0,0,0,.871-.807v-2.6h2.51a.762.762,0,0,0,.8-.778V2246.8a.774.774,0,0,0-.8-.792Zm-.856,1.654v14.551l-8.851-6.28a.817.817,0,0,0-1.05.084l-6.74,6.629-7.826-3.815a.781.781,0,0,0-.754.028l-7.127,4.148v-15.345Zm-32.347,22.633v-5.376l7.577-4.408,6.893,3.34-6.593,6.444ZM3203,2283.83h-32.347V2261.2h1.653v20.113a.9.9,0,0,0,.871.866H3203Zm3.411-3.307h-32.451v-22.736h1.757v20.143a.847.847,0,0,0,.841.837h29.853Zm3.41-3.41h-32.451v-22.737h1.757v20.173a.8.8,0,0,0,.811.807h29.883Zm3.41-3.411h-32.451v-22.736h1.757v20.2a.749.749,0,0,0,.781.778h29.913Zm-18.8-3.41,12.869-12.638,9.242,6.583v6.055Zm0,0" transform="translate(-3169.001 -2246.004)"/></svg>