<svg xmlns="http://www.w3.org/2000/svg" viewBox="0 0 56.95 46.26"><defs><style>.cls-1{fill:#86d39b;}.cls-2{fill:#fff;}</style></defs><title>Recurso 1</title><g id="Capa_2" data-name="Capa 2"><g id="Capa_1-2" data-name="Capa 1"><path class="cls-1" d="M38.67,19.33a1,1,0,1,0-1-1,1,1,0,0,0,1,1Z"/><path class="cls-1" d="M46.36,44.34H2.89a1,1,0,0,1-1-1V38.57H15.6a12.5,12.5,0,0,0,17.67.36l.37-.36H47.32v4.81a1,1,0,0,1-1,1ZM2.89,15.48H46.36a1,1,0,0,1,1,1v4.81H33.65A12.51,12.51,0,0,0,16,20.89l-.37.36H1.92V16.44a1,1,0,0,1,1-1Zm2.88-2.89a1,1,0,0,1,1-1H8.66a1,1,0,0,1,1,1v1H5.77v-1ZM18.22,8.32a1,1,0,0,1,.86-.54H30.17a1,1,0,0,1,.86.54l2.62,5.24h-18l2.62-5.24ZM37.13,29.9a12.47,12.47,0,0,0-2-6.73H47.33V36.64H35.16A12.47,12.47,0,0,0,37.13,29.9ZM14,29.9A10.59,10.59,0,1,1,24.63,40.49h0A10.6,10.6,0,0,1,14,29.9ZM1.92,23.16H14.09a12.54,12.54,0,0,0,0,13.48H1.92V23.17Zm44.45-9.61H35.8l-3-6.1a2.88,2.88,0,0,0-2.58-1.6H19.08a2.88,2.88,0,0,0-2.58,1.6l-3.05,6.1H11.54v-1A2.9,2.9,0,0,0,8.66,9.7H6.73a2.9,2.9,0,0,0-2.88,2.89v1h-1A2.89,2.89,0,0,0,0,16.44V43.38a2.88,2.88,0,0,0,2.89,2.88H46.36a2.88,2.88,0,0,0,2.89-2.88V16.44a2.88,2.88,0,0,0-2.89-2.88Z"/><path class="cls-1" d="M27.51,9.71H21.74a1,1,0,1,0,0,1.92h5.77a1,1,0,0,0,0-1.92Z"/><path class="cls-1" d="M24.63,23.18a6.73,6.73,0,1,1-6.74,6.73A6.73,6.73,0,0,1,24.63,23.18Zm0,15.39A8.66,8.66,0,1,0,16,29.91,8.66,8.66,0,0,0,24.63,38.57Z"/><path class="cls-1" d="M20.78,30.87a1,1,0,0,0,1-1h0A2.89,2.89,0,0,1,24.62,27a1,1,0,0,0,0-1.92,4.82,4.82,0,0,0-4.81,4.81,1,1,0,0,0,1,1h0Z"/><path class="cls-1" d="M42.52,19.33h1.92a1,1,0,0,0,0-1.93H42.52a1,1,0,0,0,0,1.93Z"/><circle class="cls-1" cx="48.5" cy="8.45" r="8.45"/><polygon class="cls-2" points="53.7 7.62 49.52 7.62 49.52 3.25 47.86 3.25 47.86 7.62 43.29 7.62 43.29 9.28 47.86 9.28 47.86 13.66 49.52 13.66 49.52 9.28 53.7 9.28 53.7 7.62"/></g></g></svg>