<svg xmlns="http://www.w3.org/2000/svg" xmlns:xlink="http://www.w3.org/1999/xlink" viewBox="0 0 271.08 242.37"><defs><style>.cls-1{fill:url(#Degradado_sin_nombre_102);}.cls-2{fill:url(#Degradado_sin_nombre_99);}.cls-3{fill:url(#Degradado_sin_nombre_150);}.cls-4{fill:url(#Degradado_sin_nombre_45);}.cls-5{fill:url(#Degradado_sin_nombre_15);}.cls-6{fill:url(#Degradado_sin_nombre_33);}</style><linearGradient id="Degradado_sin_nombre_102" x1="1.05" y1="19.21" x2="62.54" y2="43.81" gradientUnits="userSpaceOnUse"><stop offset="0" stop-color="#0070bd"/><stop offset="0.6" stop-color="#004893"/><stop offset="1" stop-color="#002696"/></linearGradient><linearGradient id="Degradado_sin_nombre_99" x1="128.13" y1="48.84" x2="254.06" y2="33.1" gradientUnits="userSpaceOnUse"><stop offset="0.34" stop-color="#00de34"/><stop offset="0.71" stop-color="#00cdba"/><stop offset="1" stop-color="#00c4ea"/></linearGradient><linearGradient id="Degradado_sin_nombre_150" x1="14.91" y1="171.51" x2="183.28" y2="219.95" gradientUnits="userSpaceOnUse"><stop offset="0" stop-color="#004165"/><stop offset="1" stop-color="#008a48"/></linearGradient><linearGradient id="Degradado_sin_nombre_45" x1="135.54" y1="119.76" x2="135.54" y2="225.01" gradientUnits="userSpaceOnUse"><stop offset="0.1" stop-color="#a8e400"/><stop offset="0.62" stop-color="#00e135"/><stop offset="0.97" stop-color="#00cdba"/></linearGradient><linearGradient id="Degradado_sin_nombre_15" x1="75.74" y1="192.21" x2="-12.14" y2="42.19" gradientUnits="userSpaceOnUse"><stop offset="0" stop-color="#0070bd"/><stop offset="0.39" stop-color="#004893"/><stop offset="1" stop-color="#004b95"/></linearGradient><linearGradient id="Degradado_sin_nombre_33" x1="143.25" y1="169.85" x2="269.19" y2="154.11" gradientUnits="userSpaceOnUse"><stop offset="0" stop-color="#00d19c"/><stop offset="0.51" stop-color="#00cdba"/><stop offset="1" stop-color="#00c4ea"/></linearGradient></defs><title>Recurso 10</title><g id="Capa_2" data-name="Capa 2"><g id="Capa_1-2" data-name="Capa 1"><circle class="cls-1" cx="44.37" cy="36.54" r="36.54"/><circle class="cls-2" cx="226.51" cy="36.54" r="36.54"/><path class="cls-3" d="M135.54,187.92A186.21,186.21,0,0,1,64.2,201.74a192.28,192.28,0,0,1-45.92-5.51c24.32,27.7,67.21,45.31,116.08,46.11,48.23.79,93.64-17.59,118.44-46.11a190.7,190.7,0,0,1-45.93,5.51A186.2,186.2,0,0,1,135.54,187.92Z"/><path class="cls-4" d="M63.94,120.47A103.59,103.59,0,0,0,83.26,151.7c13.33,15,31.27,27.49,52.28,36.22,21-8.73,39-21.19,52.28-36.22a103.56,103.56,0,0,0,19.31-31.23Z"/><path class="cls-5" d="M135.54,187.92S107.73,177,88.27,157s-24.33-36.54-24.33-36.54l-31.85.28A35.58,35.58,0,0,0,8.35,133.59C-1.4,145.7-1.2,157.71,1.87,169.3s12.06,22.27,16.41,26.93C18.28,196.23,76.52,213.14,135.54,187.92Z"/><path class="cls-6" d="M135.54,187.92S163.34,177,182.8,157s24.33-36.54,24.33-36.54l31.85.28a35.56,35.56,0,0,1,23.74,12.84c9.76,12.11,9.55,24.12,6.49,35.71s-12.06,22.27-16.41,26.93C252.8,196.23,194.56,213.14,135.54,187.92Z"/></g></g></svg>