<svg xmlns="http://www.w3.org/2000/svg" viewBox="0 0 277.8 51.22"><defs><style>.cls-1,.cls-2,.cls-3{isolation:isolate;}.cls-2,.cls-3{font-size:13px;font-family:ArialMT, Arial;letter-spacing:0.02em;}.cls-2,.cls-4{fill:#008a48;}.cls-3,.cls-5{fill:#9f9f9f;}.cls-6,.cls-7{fill:none;}.cls-6{stroke:#008a48;stroke-miterlimit:10;}.cls-7{stroke:#9f9f9f;}</style></defs><title>2</title><g id="Capa_2" data-name="Capa 2"><g id="Capa_1-2" data-name="Capa 1"><g class="cls-1"><text class="cls-2" transform="translate(0 47)">Cuenta</text></g><text class="cls-2" transform="translate(119.25 47)">Empresa</text><g class="cls-1"><text class="cls-3" transform="translate(246.4 47)">Bono</text></g><path class="cls-4" d="M22.71,22.05a1.66,1.66,0,0,1,.81.21L28.69,25a.36.36,0,0,0,.51-.37l-1-5.76a1.75,1.75,0,0,1,.5-1.55l4.19-4.08a.35.35,0,0,0,0-.49.3.3,0,0,0-.2-.1l-5.78-.85a1.76,1.76,0,0,1-1.32-.95L23,5.59h0a.34.34,0,0,0-.47-.16.35.35,0,0,0-.16.16L19.8,10.83a1.73,1.73,0,0,1-1.31.95l-5.78.85a.34.34,0,0,0-.3.39.35.35,0,0,0,.1.21l4.19,4.08a1.73,1.73,0,0,1,.5,1.54l-1,5.76a.37.37,0,0,0,.29.41.35.35,0,0,0,.22,0l5.17-2.72a1.7,1.7,0,0,1,.82-.21Zm6.15,4.36a1.77,1.77,0,0,1-.82-.2l-5.17-2.72a.38.38,0,0,0-.33,0l-5.17,2.72A1.75,1.75,0,0,1,15,25.48a1.71,1.71,0,0,1-.17-1.11l1-5.76a.36.36,0,0,0-.1-.31l-4.19-4.08a1.73,1.73,0,0,1,0-2.46,1.67,1.67,0,0,1,1-.51l5.79-.84a.35.35,0,0,0,.26-.2L21.14,5a1.75,1.75,0,0,1,2.34-.79,1.78,1.78,0,0,1,.79.79l2.59,5.24a.35.35,0,0,0,.26.2l5.79.84a1.74,1.74,0,0,1,1.47,2,1.7,1.7,0,0,1-.51,1L29.68,18.3a.39.39,0,0,0-.1.31l1,5.76a1.73,1.73,0,0,1-1.43,2,1.33,1.33,0,0,1-.28,0Z"/><path class="cls-4" d="M29.7,7.25a.69.69,0,0,1-.69-.7.68.68,0,0,1,.13-.4l.74-1A.7.7,0,0,1,31,6l-.74,1a.69.69,0,0,1-.57.28Z"/><path class="cls-4" d="M15.7,7.25A.7.7,0,0,1,15.14,7l-.74-1a.7.7,0,0,1,1.13-.82l.74,1a.71.71,0,0,1-.16,1A.74.74,0,0,1,15.7,7.25Z"/><path class="cls-4" d="M10.18,21a.69.69,0,0,1-.68-.71.71.71,0,0,1,.47-.65l1.2-.39a.69.69,0,0,1,.91.38.7.7,0,0,1-.37.92l-.11,0-1.2.39A.78.78,0,0,1,10.18,21Z"/><path class="cls-4" d="M22.71,30.05a.7.7,0,0,1-.7-.7h0V28.09a.69.69,0,0,1,.69-.7.71.71,0,0,1,.71.7h0v1.26a.7.7,0,0,1-.7.7Z"/><path class="cls-4" d="M35.23,21a.85.85,0,0,1-.22,0l-1.2-.39a.7.7,0,0,1,.32-1.36l.11,0,1.2.39a.7.7,0,0,1,.44.89.73.73,0,0,1-.65.47Z"/><path class="cls-5" d="M274.88,11h-2A2.07,2.07,0,0,0,273.12,9l-.61-1.65a2.1,2.1,0,0,0-2.69-1.23l-.17.07-4.84,2.3a1.51,1.51,0,0,0-.85-.27h-2.18a1.47,1.47,0,0,0-.84.27L256.1,6.2a2.09,2.09,0,0,0-2.79,1l-.08.16L252.62,9a2.13,2.13,0,0,0,.1,1.68,2.26,2.26,0,0,0,.16.26h-2a.38.38,0,0,0-.38.38h0v2.75a.38.38,0,1,0,.76,0V11.72h2.66l.13,0,3.21.88a26.67,26.67,0,0,0-1.88,3.44h-4.12v-.46a.38.38,0,1,0-.76,0v.84a.38.38,0,0,0,.38.38h1.37V30.39a.38.38,0,0,0,.38.38h20.52a.38.38,0,0,0,.39-.38V28.17a.39.39,0,0,0-.77,0V30h-7.58V17.08a20.73,20.73,0,0,1,2.15,6.59.39.39,0,0,0,.28.31.18.18,0,0,0,.1,0,.36.36,0,0,0,.3-.15,22.12,22.12,0,0,0,1.53-2.32,20.94,20.94,0,0,1,2.23,1.75.39.39,0,0,0,.54,0,.41.41,0,0,0,.1-.32,25.79,25.79,0,0,0-1.69-6.08h2v9.79a.38.38,0,0,0,.4.37.39.39,0,0,0,.37-.37V16.84h1.36a.38.38,0,0,0,.39-.38V11.34a.39.39,0,0,0-.38-.39ZM270,6.89a1.33,1.33,0,0,1,1.77.64.42.42,0,0,1,0,.1l.62,1.65a1.34,1.34,0,0,1-.79,1.71l-.11,0-6.09,1.68V10.86c1.37-.84,4.78-2.57,5.63-1.37a.39.39,0,0,0,.54.09.38.38,0,0,0,.09-.53c-.66-.93-2-1-4.11-.13A17.79,17.79,0,0,0,265.42,10V9.69a1.47,1.47,0,0,0-.12-.58ZM261.79,9H264a.7.7,0,0,1,.7.7h0v3.17a.7.7,0,0,1-.7.7h-2.18a.71.71,0,0,1-.7-.7h0V9.69a.71.71,0,0,1,.7-.7h0Zm-.65,7.09a21.15,21.15,0,0,1,1.2-1.77h1.07a18.87,18.87,0,0,1,1.19,1.77Zm-7.73-5.73a1.3,1.3,0,0,1-.07-1.07L254,7.63a1.34,1.34,0,0,1,1.72-.78l.1,0,4.67,2.22a1.66,1.66,0,0,0-.11.58V10a18.53,18.53,0,0,0-2.19-1.08c-2.07-.84-3.45-.79-4.11.13a.39.39,0,1,0,.63.45c.85-1.21,4.32.56,5.67,1.39V12.7L254.24,11a1.32,1.32,0,0,1-.83-.68Zm7.09,3.19a1.47,1.47,0,0,0,.92.73,21.26,21.26,0,0,0-3.6,8.37,20.8,20.8,0,0,1-1.13-1.85.38.38,0,0,0-.52-.16l0,0A20.59,20.59,0,0,0,254.28,22,24.89,24.89,0,0,1,258,12.85Zm-7.5,3.3h2a26.26,26.26,0,0,0-1.68,6.08.39.39,0,0,0,.33.44.44.44,0,0,0,.31-.09,19.73,19.73,0,0,1,2.23-1.75,23.73,23.73,0,0,0,1.52,2.32.43.43,0,0,0,.31.16l.09,0a.37.37,0,0,0,.29-.31,20.73,20.73,0,0,1,2.15-6.59V30H253ZM261.35,30V16.84h3.06V30Zm8.26-9.35a.37.37,0,0,0-.53.11l0,0a20.8,20.8,0,0,1-1.13,1.85,21.26,21.26,0,0,0-3.6-8.37,1.5,1.5,0,0,0,.92-.73l2.48-.68A25.12,25.12,0,0,1,271.47,22a20.73,20.73,0,0,0-1.87-1.36Zm4.9-4.57h-4.13a24.45,24.45,0,0,0-1.88-3.44l3.21-.88.13,0h2.66Z"/><path class="cls-4" d="M146.08,5.16a.65.65,0,0,0,.65-.65V.65a.65.65,0,1,0-1.3,0V4.51a.65.65,0,0,0,.65.65Z"/><path class="cls-4" d="M141.49,6.46a.66.66,0,0,0,.92,0,.64.64,0,0,0,0-.89L140.86,4a.66.66,0,0,0-.92,0,.65.65,0,0,0,0,.92l0,0Z"/><path class="cls-4" d="M150.12,6.75a.66.66,0,0,0,.46-.19l1.65-1.65a.65.65,0,0,0-.92-.92l-1.65,1.65a.65.65,0,0,0,.46,1.11Z"/><path class="cls-4" d="M161.39,29.31h-1.82v-4.8a.65.65,0,0,0-1.3,0v4.8h-6V21.92a.69.69,0,0,0-.11-.36L148,15.26a7.21,7.21,0,0,1-1.22-3.76l6.74,6.73,0,0a.7.7,0,0,0,.44.16h4.51a3,3,0,0,1,2.95,2.95v8Zm-8.1-15.11a2,2,0,1,1,4-.09v1a2,2,0,1,1-4,.09v-1Zm-18.42.91V14.2a2,2,0,1,1,4-.09.14.14,0,0,1,0,.09v.91a2,2,0,1,1-4,.09Zm23.57,2h-.52a3.29,3.29,0,0,0,.68-2V14.2a3.31,3.31,0,0,0-6.61,0v.71L147.11,10a2.45,2.45,0,0,0-2.05,0l-4.88,4.88V14.2a3.31,3.31,0,0,0-6.61,0h0v.91a3.24,3.24,0,0,0,.69,2h-.53a4.26,4.26,0,0,0-4.25,4.25V30a.65.65,0,0,0,.65.65h2.74a.59.59,0,0,1,.37,0h7.27a.65.65,0,0,0,.65-.65V27.75a.65.65,0,0,0-1.3,0v1.56h-6V21.92a.65.65,0,1,0-1.3,0v7.39h-1.81V21.37a3,3,0,0,1,2.95-3h4.51a.65.65,0,0,0,.46-.18h0l6.73-6.74a7.17,7.17,0,0,1-1.21,3.77L140,21.56a.64.64,0,0,0-.11.36v.71a.65.65,0,0,0,1.3,0h0v-.51L145.3,16a8.42,8.42,0,0,0,.79-1.48,8.46,8.46,0,0,0,.8,1.48L151,22.12V30a.65.65,0,0,0,.65.64h7.26a.77.77,0,0,1,.37,0H162a.65.65,0,0,0,.65-.64v-8.6a4.26,4.26,0,0,0-4.25-4.25Z"/><path class="cls-4" d="M158.93,21.27a.65.65,0,0,0,0,1.3.66.66,0,0,0,.65-.65.65.65,0,0,0-.2-.46A.68.68,0,0,0,158.93,21.27Z"/><path class="cls-4" d="M140.51,24.71a.65.65,0,1,0,.65.65.66.66,0,0,0-.19-.46A.68.68,0,0,0,140.51,24.71Z"/><line class="cls-6" x1="54.98" y1="30.5" x2="108.98" y2="30.5"/><line class="cls-7" x1="183.98" y1="30.5" x2="237.98" y2="30.5"/></g></g></svg>