<svg xmlns="http://www.w3.org/2000/svg" width="280" height="50" viewBox="0 0 280 50"><defs><style>.a,.c{fill:#008a48;}.a,.b{font-size:13px;font-family:Rubik-Regular, Rubik;letter-spacing:0.02em;}.b,.d{fill:#9f9f9f;}.e{fill:none;stroke:#9f9f9f;}</style></defs><g transform="translate(-606 -87)"><text class="a" transform="translate(629 134)"><tspan x="-22.484" y="0">Cuenta</tspan></text><text class="b" transform="translate(753 134)"><tspan x="-27.235" y="0">Empresa</tspan></text><text class="b" transform="translate(869 134)"><tspan x="-16.087" y="0">Bono</tspan></text><g transform="translate(616 91)"><path class="c" d="M363.843,379.8a1.744,1.744,0,0,1,.811.2l5.175,2.721a.349.349,0,0,0,.506-.368l-.988-5.763a1.744,1.744,0,0,1,.5-1.544l4.187-4.081a.349.349,0,0,0-.193-.595l-5.786-.841a1.744,1.744,0,0,1-1.313-.954l-2.587-5.243h0a.349.349,0,0,0-.625,0l-2.588,5.243a1.743,1.743,0,0,1-1.313.954l-5.786.841a.349.349,0,0,0-.193.6l4.187,4.081a1.744,1.744,0,0,1,.5,1.544l-.988,5.763a.349.349,0,0,0,.506.368L363.032,380a1.744,1.744,0,0,1,.812-.2Zm6.15,4.358a1.744,1.744,0,0,1-.813-.2l-5.175-2.721a.349.349,0,0,0-.325,0l-5.175,2.721a1.744,1.744,0,0,1-2.53-1.838l.988-5.763a.348.348,0,0,0-.1-.309l-4.187-4.081a1.744,1.744,0,0,1,.966-2.975l5.786-.841a.349.349,0,0,0,.263-.191l2.588-5.243a1.744,1.744,0,0,1,3.127,0l2.588,5.243a.349.349,0,0,0,.263.191l5.786.841a1.744,1.744,0,0,1,.966,2.975l-4.187,4.081a.349.349,0,0,0-.1.309l.988,5.763a1.747,1.747,0,0,1-1.717,2.041Z" transform="translate(-350.621 -361.746)"/><path class="c" d="M484.186,370.281a.7.7,0,0,1-.564-1.108l.741-1.019a.7.7,0,0,1,1.129.82l-.74,1.019a.7.7,0,0,1-.565.288Z" transform="translate(-463.966 -367.028)"/><g transform="translate(0 0.835)"><path class="c" d="M377.341,370.251a.7.7,0,0,1-.565-.288l-.74-1.019a.7.7,0,0,1,1.129-.82l.74,1.019a.7.7,0,0,1-.564,1.108Z" transform="translate(-371.12 -367.837)"/><path class="c" d="M341.7,474.236a.7.7,0,0,1-.215-1.361l1.2-.389a.7.7,0,1,1,.431,1.327l-1.2.389a.7.7,0,0,1-.216.034Z" transform="translate(-341 -458.118)"/><path class="c" d="M433.109,535.152a.7.7,0,0,1-.7-.7v-1.26a.7.7,0,1,1,1.4,0v1.26a.7.7,0,0,1-.7.7Z" transform="translate(-419.887 -509.937)"/><path class="c" d="M516.966,474.244a.7.7,0,0,1-.216-.034l-1.2-.389a.7.7,0,1,1,.431-1.327l1.2.389a.7.7,0,0,1-.216,1.361Z" transform="translate(-491.221 -458.124)"/></g></g><g transform="translate(857 93)"><g transform="translate(0 0)"><path class="d" d="M841.4,370.952h-2.018a2.085,2.085,0,0,0,.257-1.944l-.612-1.644a2.095,2.095,0,0,0-2.862-1.162l-4.839,2.3a1.453,1.453,0,0,0-.847-.272H828.3a1.453,1.453,0,0,0-.848.272l-4.839-2.3a2.095,2.095,0,0,0-2.862,1.162l-.612,1.644a2.1,2.1,0,0,0,.1,1.685,2.075,2.075,0,0,0,.158.259h-2.018a.382.382,0,0,0-.383.383v2.754a.382.382,0,1,0,.765,0v-2.371h2.657q.064.023.129.041l3.211.884a25.58,25.58,0,0,0-1.882,3.435h-4.116v-.459a.382.382,0,0,0-.765,0v.842a.383.383,0,0,0,.383.383h1.364v13.542a.382.382,0,0,0,.382.383h20.526a.383.383,0,0,0,.383-.383v-2.221a.383.383,0,0,0-.765,0V390h-7.585V377.078a20.484,20.484,0,0,1,2.154,6.589.383.383,0,0,0,.284.315.373.373,0,0,0,.095.012.382.382,0,0,0,.305-.152,21.317,21.317,0,0,0,1.523-2.326,21.785,21.785,0,0,1,2.235,1.749.382.382,0,0,0,.633-.341,25.649,25.649,0,0,0-1.682-6.081h2.038v9.791a.383.383,0,0,0,.765,0v-9.791H841.4a.383.383,0,0,0,.383-.383v-5.125a.382.382,0,0,0-.383-.383Zm-4.906-4.059a1.33,1.33,0,0,1,1.817.738l.611,1.643a1.33,1.33,0,0,1-.894,1.746l-6.089,1.676v-1.838c1.369-.838,4.781-2.566,5.63-1.368a.382.382,0,0,0,.624-.442c-.656-.925-2.036-.97-4.105-.134a18.215,18.215,0,0,0-2.149,1.057v-.282a1.452,1.452,0,0,0-.119-.577Zm-8.191,2.1h2.176a.7.7,0,0,1,.7.7v3.162a.7.7,0,0,1-.7.7H828.3a.7.7,0,0,1-.7-.7v-3.162a.7.7,0,0,1,.7-.7Zm-.643,7.084a20.389,20.389,0,0,1,1.193-1.765h1.076a20.358,20.358,0,0,1,1.192,1.765Zm-7.738-5.733a1.317,1.317,0,0,1-.063-1.07l.612-1.644a1.33,1.33,0,0,1,1.817-.738l4.673,2.22a1.454,1.454,0,0,0-.119.577v.3a18.294,18.294,0,0,0-2.187-1.079c-2.069-.837-3.45-.792-4.105.134a.382.382,0,1,0,.624.442c.857-1.21,4.325.562,5.668,1.391V372.7l-6.089-1.676a1.315,1.315,0,0,1-.831-.676Zm7.091,3.193a1.467,1.467,0,0,0,.923.728,21.283,21.283,0,0,0-3.6,8.378,20.944,20.944,0,0,1-1.134-1.859.382.382,0,0,0-.545-.139,22.116,22.116,0,0,0-1.863,1.361,24.986,24.986,0,0,1,3.74-9.152Zm-7.5,3.305h2.038a25.656,25.656,0,0,0-1.682,6.081.383.383,0,0,0,.633.341,21.788,21.788,0,0,1,2.236-1.749,21.3,21.3,0,0,0,1.523,2.326.382.382,0,0,0,.305.153.374.374,0,0,0,.095-.012.382.382,0,0,0,.284-.315,20.5,20.5,0,0,1,2.154-6.589V390h-7.585ZM827.862,390v-13.16h3.06V390Zm8.261-9.355a.382.382,0,0,0-.545.139,20.943,20.943,0,0,1-1.134,1.859,21.275,21.275,0,0,0-3.6-8.378,1.467,1.467,0,0,0,.924-.729l2.477-.682a25,25,0,0,1,3.74,9.152,22.188,22.188,0,0,0-1.864-1.361Zm4.9-4.569H836.9a25.581,25.581,0,0,0-1.882-3.435l3.211-.884q.066-.018.129-.041h2.657Zm0,0" transform="translate(-817 -366)"/></g></g><g transform="translate(736 87)"><path class="d" d="M687.737,369.155a.649.649,0,0,0,.648-.648v-3.858a.648.648,0,1,0-1.3,0v3.858a.648.648,0,0,0,.648.648Z" transform="translate(-671.136 -364)"/><path class="d" d="M654.589,389.529a.649.649,0,0,0,.917-.918l-1.552-1.55a.649.649,0,1,0-.917.918l1.552,1.55Z" transform="translate(-642.58 -383.074)"/><path class="d" d="M712.052,389.828a.647.647,0,0,0,.459-.19l1.65-1.651a.649.649,0,0,0-.918-.917l-1.65,1.651a.648.648,0,0,0,.459,1.107Z" transform="translate(-691.414 -383.082)"/><path class="d" d="M622.906,442.261h-1.816v-4.8a.649.649,0,0,0-1.3,0v4.8h-5.966v-7.389a.649.649,0,0,0-.111-.362l-4.244-6.3a7.141,7.141,0,0,1-1.218-3.766l6.736,6.736.024.022a.645.645,0,0,0,.434.168h4.507a2.954,2.954,0,0,1,2.951,2.951v7.944Zm-8.1-15.114a2.007,2.007,0,1,1,4.013,0v.915a2.007,2.007,0,1,1-4.013,0v-.915Zm-18.418.915v-.915a2.007,2.007,0,1,1,4.013,0v.915a2.007,2.007,0,1,1-4.013,0Zm23.57,2.007h-.523a3.288,3.288,0,0,0,.682-2.007v-.915a3.3,3.3,0,1,0-6.607,0v.711l-4.879-4.879a2.418,2.418,0,0,0-2.053,0l-4.879,4.879v-.711a3.3,3.3,0,1,0-6.608,0v.915a3.288,3.288,0,0,0,.682,2.007h-.523A4.253,4.253,0,0,0,591,434.317v8.593a.649.649,0,0,0,.648.648h2.74a.644.644,0,0,1,.373,0h7.263a.649.649,0,0,0,.648-.648V440.7a.648.648,0,1,0-1.3,0v1.556H595.41v-7.389a.648.648,0,1,0-1.3,0v7.389H592.3v-7.944a2.954,2.954,0,0,1,2.951-2.951h4.507a.646.646,0,0,0,.457-.189h0l6.736-6.736a7.14,7.14,0,0,1-1.218,3.766l-4.244,6.3a.649.649,0,0,0-.111.362v.71a.649.649,0,0,0,1.3,0v-.512l4.134-6.139a8.472,8.472,0,0,0,.795-1.479,8.493,8.493,0,0,0,.795,1.479l4.134,6.139v7.84a.649.649,0,0,0,.649.648h7.263a.644.644,0,0,1,.373,0h2.74a.649.649,0,0,0,.648-.648v-8.593a4.253,4.253,0,0,0-4.248-4.248Z" transform="translate(-591 -412.948)"/><path class="d" d="M765.086,492.145a.649.649,0,1,0,.458.19.653.653,0,0,0-.458-.19Z" transform="translate(-735.643 -470.871)"/><path class="d" d="M654.148,512.828a.649.649,0,1,0,.459.19.653.653,0,0,0-.459-.19Z" transform="translate(-643.124 -488.12)"/></g><line class="e" x2="54" transform="translate(661.5 117.5)"/><line class="e" x2="54" transform="translate(790.5 117.5)"/></g></svg>