<svg xmlns="http://www.w3.org/2000/svg" viewBox="0 0 1092.47 1058.91"><title>Recurso 1</title><g id="Capa_2" data-name="Capa 2"><g id="Capa_1-2" data-name="Capa 1"><path d="M969.89,676.5c27.67-101.56,15.48-208.1-34.71-301.09C886,284.34,806,216.61,708.72,183.22a159.16,159.16,0,0,0,1.83-24.17c0-87.7-71.35-159-159.08-159S392.4,71.35,392.4,159.05a159.29,159.29,0,0,0,3,30.94A405.62,405.62,0,0,0,167.57,393.5c-43.37,87.88-53.63,186.21-29.86,280.21C60.05,684.18,0,750.87,0,831.35c0,87.72,71.35,159.07,159.08,159.07a158.55,158.55,0,0,0,114.24-48.51c73.6,72.41,170.33,113.78,274.11,116.83q6.18.18,12.32.17A405.3,405.3,0,0,0,832.47,954.23a158.39,158.39,0,0,0,100.92,36.19c87.73,0,159.08-71.35,159.08-159.07C1092.47,756.17,1040.08,693,969.89,676.5ZM551.47,50.13A108.94,108.94,0,1,1,442.53,159.05,109.06,109.06,0,0,1,551.47,50.13ZM159.08,940.3A109,109,0,1,1,268,831.35,109.09,109.09,0,0,1,159.08,940.3Zm389.82,68.34A356,356,0,0,1,302.48,900.13a158.11,158.11,0,0,0,15.65-68.78c0-77.1-55.11-141.54-128-156A358.18,358.18,0,0,1,412.85,237a159,159,0,0,0,280.5-6,358.25,358.25,0,0,1,225.7,441l2.4.72c-82.17,6.12-147.14,74.92-147.14,158.63a158.14,158.14,0,0,0,24.91,85.37C730.41,978.75,642.09,1010.92,548.9,1008.64ZM933.39,940.3a109,109,0,1,1,108.95-108.95A109.09,109.09,0,0,1,933.39,940.3Z"/></g></g></svg>